<svg class="svg-icon" style="width: 1em; height: 1em;vertical-align: middle;fill: currentColor;overflow: hidden;" 
viewBox="0 0 1024 1024" version="1.1" xmlns="http://www.w3.org/2000/svg">
<path d="M1017.21248 297.6c0-90-66.2-162.4-148-162.4C758.41248 130 645.41248 128 530.01248 128h-36c-115.2 0-228.4 2-339.2 7.2C73.21248 135.2 7.01248 208 7.01248 298 2.01248 369.2-0.18752 440.4 0.01248 511.6c-0.2 71.2 2 142.4 6.8 213.8 0 90 66.2 163 147.8 163 116.4 5.4 235.8 7.8 357.2 7.6 121.6 0.4 240.6-2 357.2-7.6 81.8 0 148-73 148-163 4.8-71.4 7-142.6 6.8-214 0.4-71.2-1.8-142.4-6.6-213.8zM414.01248 707.8V314.8l290 196.4-290 196.6z"  />
</svg>